<?xml version="1.0" encoding="UTF-8" standalone="no"?>
<svg
   xmlns:dc="http://purl.org/dc/elements/1.1/"
   xmlns:cc="http://creativecommons.org/ns#"
   xmlns:rdf="http://www.w3.org/1999/02/22-rdf-syntax-ns#"
   xmlns:svg="http://www.w3.org/2000/svg"
   xmlns="http://www.w3.org/2000/svg"
   xmlns:sodipodi="http://sodipodi.sourceforge.net/DTD/sodipodi-0.dtd"
   xmlns:inkscape="http://www.inkscape.org/namespaces/inkscape"
   version="1.0"
   width="1500"
   height="400"
   viewBox="0 0 1500 400"
   preserveAspectRatio="xMidYMid meet"
   id="viz"
   sodipodi:docname="A001.svg"
   inkscape:version="1.0 (4035a4f, 2020-05-01)">
  <defs
     id="defs227" />
  <sodipodi:namedview
     inkscape:document-rotation="0"
     pagecolor="#ffffff"
     bordercolor="#666666"
     borderopacity="1"
     objecttolerance="10"
     gridtolerance="10"
     guidetolerance="10"
     inkscape:pageopacity="0"
     inkscape:pageshadow="2"
     inkscape:window-width="1792"
     inkscape:window-height="1075"
     id="namedview225"
     showgrid="false"
     units="px"
     inkscape:zoom="1"
     inkscape:cx="583.5"
     inkscape:cy="404.33333"
     inkscape:window-x="0"
     inkscape:window-y="23"
     inkscape:window-maximized="1"
     inkscape:current-layer="viz" />
  <metadata
     id="metadata211">
Created by potrace 1.10, written by Peter Selinger 2001-2011
<rdf:RDF>
  <cc:Work
     rdf:about="">
    <dc:format>image/svg+xml</dc:format>
    <dc:type
       rdf:resource="http://purl.org/dc/dcmitype/StillImage" />
    <dc:title />
  </cc:Work>
</rdf:RDF>
</metadata>
  <g
     transform="matrix(0.27586575,0,0,-0.62887681,18.70018,377.35925)"
     fill="#000000"
     stroke="none"
     id="g221">
    <path
       d="M 303,554 C 194,530 60,458 60,422 c 0,-19 32,-7 51,19 22,32 149,85 235,99 57,9 159,-3 324,-40 144,-32 148,-32 248,-21 100,11 99,11 174,-38 21,-13 52,-25 70,-27 44,-6 174,-36 268,-64 45,-13 370,-3 443,14 91,21 272,37 442,39 133,2 143,1 210,-27 39,-16 96,-46 127,-68 55,-39 58,-40 120,-34 89,9 117,-1 146,-55 13,-24 27,-43 32,-42 5,1 7,-11 5,-27 -5,-36 10,-48 25,-20 8,16 6,27 -13,57 -13,21 -26,46 -30,56 -4,10 -11,15 -17,12 -5,-3 -8,0 -5,7 8,22 -45,38 -130,38 -72,0 -85,3 -116,26 -38,29 -130,74 -151,74 -8,0 -18,4 -24,10 -13,13 -161,33 -198,26 -17,-3 -99,-11 -183,-16 -84,-6 -192,-17 -240,-26 -129,-23 -215,-32 -243,-24 -14,4 -56,3 -95,-2 -42,-5 -78,-4 -90,1 -11,5 -33,12 -50,16 -77,16 -102,22 -122,33 -12,7 -37,12 -55,12 -49,0 -103,18 -123,40 -10,11 -25,20 -33,20 -9,0 -23,6 -31,14 -14,12 -31,12 -119,1 -89,-12 -110,-12 -152,1 -48,14 -61,17 -215,48 -94,19 -157,19 -242,0 z m 164,0 c -3,-3 -12,-4 -19,-1 -8,3 -5,6 6,6 11,1 17,-2 13,-5 z m 56,-11 c -7,-2 -19,-2 -25,0 -7,3 -2,5 12,5 14,0 19,-2 13,-5 z m 64,-9 c -3,-3 -12,-4 -19,-1 -8,3 -5,6 6,6 11,1 17,-2 13,-5 z M 100,445 c -7,-9 -15,-13 -17,-11 -7,7 7,26 19,26 6,0 6,-6 -2,-15 z m 2248,-22 c -10,-2 -26,-2 -35,0 -10,3 -2,5 17,5 19,0 27,-2 18,-5 z m -111,-9 c -3,-3 -12,-4 -19,-1 -8,3 -5,6 6,6 11,1 17,-2 13,-5 z m -347,-34 c -34,-11 -60,-11 -35,0 11,5 29,8 40,8 16,0 15,-2 -5,-8 z m 805,-88 c -3,-3 -11,0 -18,7 -9,10 -8,11 6,5 10,-3 15,-9 12,-12 z"
       id="path213" />
    <path
       d="M 41,396 C 23,372 2,283 5,247 c 5,-48 20,-67 55,-67 16,0 30,-5 32,-11 2,-6 15,-12 30,-12 14,-1 26,-6 25,-12 -1,-5 6,-9 15,-9 10,1 16,-3 15,-10 -3,-15 47,-20 73,-6 12,7 19,18 16,26 -3,7 -1,13 5,11 12,-2 57,114 62,162 3,27 9,35 26,36 12,1 24,-1 26,-5 3,-4 53,-11 112,-15 68,-4 123,-14 148,-25 22,-10 65,-23 95,-29 112,-21 349,-13 333,12 -3,6 -1,7 6,3 6,-4 9,-11 6,-16 -10,-17 8,-41 52,-67 38,-22 60,-27 141,-30 53,-2 106,-8 117,-13 33,-14 104,-22 212,-24 87,-1 101,1 100,15 -1,14 -13,15 -77,12 -109,-7 -180,-1 -231,18 -14,6 -72,14 -128,18 -106,8 -141,22 -165,67 -6,10 -12,21 -13,23 -5,9 -83,9 -89,0 -4,-7 -44,-8 -112,-4 -126,7 -210,22 -235,43 -12,11 -55,18 -140,24 -67,4 -135,9 -152,11 -34,2 -58,-31 -52,-75 2,-15 -1,-26 -6,-25 -5,1 -13,-9 -17,-23 -15,-54 -51,-110 -69,-110 -25,0 -121,48 -121,61 0,5 -15,9 -34,9 -19,0 -38,5 -41,10 -9,15 14,109 36,148 10,18 19,34 19,36 0,8 -31,1 -39,-8 z m 556,-52 c -3,-3 -12,-4 -19,-1 -8,3 -5,6 6,6 11,1 17,-2 13,-5 z m 64,-21 c 13,-17 13,-17 -6,-3 -11,8 -22,16 -24,17 -2,2 0,3 6,3 6,0 17,-8 24,-17 z m 46,-19 c -3,-3 -12,-4 -19,-1 -8,3 -5,6 6,6 11,1 17,-2 13,-5 z M 17,278 c -3,-8 -6,-5 -6,6 -1,11 2,17 5,13 3,-3 4,-12 1,-19 z m 730,16 c -3,-3 -12,-4 -19,-1 -8,3 -5,6 6,6 11,1 17,-2 13,-5 z m 140,-10 c -3,-3 -12,-4 -19,-1 -8,3 -5,6 6,6 11,1 17,-2 13,-5 z M 281,183 c -12,-20 -14,-14 -5,12 4,9 9,14 11,11 3,-2 0,-13 -6,-23 z m 1032,10 c -7,-2 -21,-2 -30,0 -10,3 -4,5 12,5 17,0 24,-2 18,-5 z"
       id="path215" />
    <path
       d="m 2110,265 c -39,-22 -94,-28 -138,-14 -36,10 -43,9 -69,-9 -21,-15 -48,-22 -94,-24 -72,-3 -89,-23 -19,-22 88,2 99,4 128,29 17,14 34,25 38,25 5,0 3,-4 -4,-8 -9,-6 0,-13 27,-22 34,-11 47,-10 103,8 54,17 82,19 175,15 69,-4 123,-2 142,5 18,6 29,7 26,2 -3,-5 12,-14 34,-20 22,-6 43,-14 46,-19 3,-5 29,-14 57,-21 64,-15 115,-44 123,-70 8,-24 54,-62 66,-54 5,3 6,-1 4,-9 -3,-7 3,-21 14,-31 17,-16 25,-16 58,-6 44,15 65,29 58,40 -3,5 5,6 17,2 14,-3 19,-1 14,6 -4,7 -2,10 7,6 17,-6 41,21 32,36 -3,6 -11,8 -16,4 -5,-3 -7,-10 -3,-15 3,-5 2,-9 -3,-8 -24,4 -44,-3 -61,-21 -11,-12 -36,-24 -56,-27 -32,-5 -38,-3 -43,15 -4,19 -47,56 -65,57 -3,0 -10,4 -15,9 -5,5 -3,6 5,2 6,-4 12,-3 12,3 0,20 -62,60 -117,76 -32,9 -85,29 -119,45 -52,23 -69,26 -105,20 -23,-4 -47,-7 -53,-5 -6,2 -49,6 -96,9 -62,4 -92,1 -110,-9 z m 57,-1 c -3,-3 -12,-4 -19,-1 -8,3 -5,6 6,6 11,1 17,-2 13,-5 z m 126,-11 c -7,-2 -19,-2 -25,0 -7,3 -2,5 12,5 14,0 19,-2 13,-5 z"
       id="path217" />
    <path
       d="m 1719,198 c -6,-20 -6,-38 1,-38 12,0 31,26 23,33 -6,7 -22,10 -24,5 z"
       id="path219" />
  </g>
</svg>
