<svg viewBox="0 0 1500 400" height="400" width="1500" id="viz" version="1.0">
  <g transform="scale(0.275 0.275) translate(75 35) rotate(180 1490 300)">
    <!--crosshairs-->
    <!--
    <circle cx="1490" cy="300" r="15" fill="red"></circle>
    <line x1="1490" y1="0" x2="1490" y2="1500" stroke="red"></line>
    <line x1="0" y1="300" x2="3000" y2="300" stroke="red"></line>
    -->
    <path id="path16" d="m 1123,520 c 4,-65 -3,-85 -18,-60 -4,6 -26,20 -50,31 -39,18 -52,19 -132,11 -48,-5 -101,-8 -118,-6 -44,5 -188,33 -205,40 -56,21 -184,33 -249,24 C 167,534 54,454 14,320 -11,235 5,180 55,180 c 20,0 35,-6 39,-15 3,-8 16,-15 29,-15 13,0 32,-9 43,-21 24,-27 79,-20 103,13 26,37 66,141 66,170 -1,15 3,24 7,22 5,-3 11,2 14,10 4,11 11,13 22,7 27,-13 91,-20 97,-10 4,5 12,9 18,9 8,0 8,-3 -1,-9 -8,-5 11,-9 50,-11 35,-2 73,-3 85,-4 11,-1 19,-4 17,-7 -21,-34 261,-66 391,-45 37,6 41,4 61,-26 11,-18 28,-32 37,-32 9,1 14,-2 11,-7 -3,-5 -2,-9 3,-10 4,0 19,-3 33,-6 14,-3 68,-6 122,-7 58,-1 96,-5 95,-11 -1,-5 7,-9 18,-8 11,1 43,-4 70,-11 28,-7 86,-12 132,-10 69,2 89,7 119,28 30,20 45,24 79,19 31,-4 52,0 83,16 37,19 46,20 86,9 43,-11 85,-4 172,29 9,3 11,-30 8,-121 -3,-83 -1,-126 6,-126 6,0 10,44 10,120 v 120 h 133 c 99,0 138,-4 153,-14 30,-22 152,-59 170,-52 8,3 13,2 10,-3 -3,-5 5,-16 19,-25 14,-9 25,-21 25,-28 0,-6 23,-33 51,-61 l 51,-50 39,12 c 55,16 126,67 144,102 15,27 14,32 -16,84 -44,77 -58,85 -157,85 -83,0 -85,1 -152,45 -37,25 -76,45 -87,45 -10,0 -23,4 -28,9 -6,5 -34,16 -64,26 -45,15 -76,17 -177,12 l -123,-6 6,34 c 3,22 2,35 -5,35 -6,0 -10,-14 -10,-30 1,-17 -2,-33 -5,-36 -3,-3 -47,-10 -99,-14 -51,-5 -140,-16 -198,-26 -151,-24 -479,-19 -496,7 -3,5 -17,9 -32,9 -15,1 -38,7 -52,15 -14,8 -39,14 -56,15 -17,0 -44,3 -60,6 l -29,5 3,75 c 3,52 0,74 -8,74 -8,0 -11,-21 -7,-70 z m -611,16 c 25,-1 44,-5 41,-10 -3,-5 6,-7 20,-4 15,3 25,2 23,-1 -3,-4 52,-17 121,-31 115,-22 132,-23 208,-12 74,11 88,10 119,-5 20,-9 36,-20 36,-24 0,-11 52,-28 115,-38 33,-5 74,-14 90,-19 17,-6 50,-16 75,-22 25,-6 59,-15 75,-20 24,-6 171,-7 320,0 11,0 79,9 150,20 72,10 216,24 320,30 186,12 191,12 250,-10 33,-12 69,-24 80,-28 11,-3 32,-13 46,-21 14,-9 46,-28 70,-43 39,-23 56,-27 144,-30 59,-2 99,-7 99,-13 -3,-18 36,-86 46,-80 5,3 5,-7 0,-25 -5,-16 -6,-30 -2,-30 4,0 -5,-8 -18,-17 -14,-9 -31,-25 -38,-35 -7,-9 -19,-15 -27,-12 -8,4 -18,-1 -21,-10 -4,-11 -14,-14 -33,-10 -20,4 -22,3 -11,-5 12,-8 11,-10 -7,-8 -12,0 -19,5 -17,9 3,5 -20,33 -50,63 -31,30 -56,58 -56,63 0,18 -143,68 -161,56 -5,-3 -8,0 -7,7 5,22 -77,37 -223,39 -174,3 -182,2 -175,-9 4,-5 -4,-7 -16,-3 -11,3 -19,1 -16,-4 7,-11 -64,-11 -113,0 -28,6 -44,3 -75,-13 -26,-14 -57,-21 -96,-21 -32,0 -60,-5 -64,-12 -5,-7 -3,-8 6,-3 9,5 11,4 6,-4 -4,-6 -12,-9 -17,-5 -5,3 -16,1 -23,-5 -8,-7 -34,-10 -61,-7 -25,2 -60,0 -78,-5 -21,-6 -44,-4 -76,7 -25,8 -77,17 -116,19 -127,8 -200,17 -226,31 -15,7 -29,11 -32,8 -3,-3 -10,5 -17,18 -11,22 -10,22 4,4 21,-26 21,-7 0,22 -11,16 -25,22 -55,22 -21,0 -39,-4 -39,-9 0,-8 -144,-6 -159,3 -4,3 -22,1 -40,-4 -22,-6 -29,-5 -25,2 4,7 -5,9 -29,6 -20,-2 -33,0 -30,5 3,6 -10,8 -30,5 -20,-2 -34,-1 -31,3 12,21 -42,37 -152,44 -44,3 -95,8 -115,11 -49,7 -82,-20 -83,-68 -1,-20 -4,-34 -9,-31 -10,6 -29,-47 -23,-64 4,-9 1,-11 -6,-7 -8,5 -9,2 -5,-10 5,-11 3,-15 -5,-10 -7,5 -9,2 -5,-8 7,-20 -11,-38 -31,-31 -8,4 -13,2 -9,-3 3,-5 -3,-10 -13,-10 -10,0 -16,5 -13,10 4,5 -1,7 -9,3 -10,-3 -15,0 -14,11 1,11 -6,17 -19,17 -11,0 -26,4 -34,9 -11,7 -12,6 -6,-5 8,-12 6,-12 -8,0 -9,7 -15,17 -12,21 3,5 0,12 -6,16 -8,4 -9,3 -5,-4 5,-8 -2,-11 -23,-9 -38,5 -37,3 -45,57 -5,34 -4,41 5,30 8,-12 10,-9 6,12 -2,17 0,25 6,21 6,-4 8,2 5,15 -4,12 -3,20 1,17 11,-6 33,44 25,56 -3,5 -2,8 3,7 10,-4 58,43 58,57 0,6 9,9 19,7 11,-2 15,1 11,7 -4,7 0,8 11,4 12,-4 15,-3 10,5 -5,8 -1,10 10,5 12,-4 15,-3 10,5 -5,8 -2,10 8,6 9,-3 16,-1 16,5 0,6 7,8 17,4 9,-4 14,-2 11,3 -4,5 4,10 15,10 12,1 49,6 82,12 33,6 74,8 90,4 17,-3 51,-6 77,-6 z M 53,375 c -3,-9 -8,-14 -10,-11 -3,3 -2,9 2,15 9,16 15,13 8,-4 z" />
  </g>
</svg>
