<?xml version="1.0" encoding="UTF-8" standalone="no"?>
<svg
   xmlns:dc="http://purl.org/dc/elements/1.1/"
   xmlns:cc="http://creativecommons.org/ns#"
   xmlns:rdf="http://www.w3.org/1999/02/22-rdf-syntax-ns#"
   xmlns:svg="http://www.w3.org/2000/svg"
   xmlns="http://www.w3.org/2000/svg"
   xmlns:sodipodi="http://sodipodi.sourceforge.net/DTD/sodipodi-0.dtd"
   xmlns:inkscape="http://www.inkscape.org/namespaces/inkscape"
   inkscape:version="1.0 (4035a4f, 2020-05-01)"
   sodipodi:docname="A002.svg"
   id="svg169"
   preserveAspectRatio="xMidYMid meet"
   viewBox="0 0 1125 300.00001"
   height="400"
   width="1500"
   version="1.0">
  <defs
     id="defs173" />
  <sodipodi:namedview
     inkscape:current-layer="svg169"
     inkscape:window-maximized="1"
     inkscape:window-y="23"
     inkscape:window-x="0"
     inkscape:cy="194.75871"
     inkscape:cx="775.13064"
     inkscape:zoom="1"
     units="px"
     showgrid="false"
     id="namedview171"
     inkscape:window-height="1075"
     inkscape:window-width="1792"
     inkscape:pageshadow="2"
     inkscape:pageopacity="0"
     guidetolerance="10"
     gridtolerance="10"
     objecttolerance="10"
     borderopacity="1"
     bordercolor="#666666"
     pagecolor="#ffffff" />
  <metadata
     id="metadata161">
Created by potrace 1.10, written by Peter Selinger 2001-2011
<rdf:RDF>
  <cc:Work
     rdf:about="">
    <dc:format>image/svg+xml</dc:format>
    <dc:type
       rdf:resource="http://purl.org/dc/dcmitype/StillImage" />
    <dc:title></dc:title>
  </cc:Work>
</rdf:RDF>
</metadata>
  <g
     id="g167"
     stroke="none"
     fill="#000000"
     transform="matrix(0.25738768,0,0,-0.55014569,25.689613,308.10991)">
    <path
       id="path163"
       d="M 478,481 C 458,477 433,467 424,459 413,450 371,443 295,440 187,435 182,434 147,403 128,386 98,369 81,365 60,361 44,348 34,327 19,299 19,294 33,266 54,226 80,150 80,128 c 0,-9 5,-20 11,-23 16,-10 61,4 53,16 -4,8 1,9 15,4 17,-5 32,2 66,33 23,23 40,43 37,46 -9,9 2,7 49,-9 31,-11 44,-12 50,-4 4,6 12,9 17,5 6,-4 28,0 48,9 20,8 47,15 59,15 25,0 78,24 70,32 -3,3 9,5 27,6 24,1 29,-2 18,-9 -11,-7 -5,-8 20,-4 27,5 32,4 20,-5 -12,-9 -10,-10 9,-5 15,5 21,3 17,-3 -8,-13 95,-35 140,-30 19,2 34,1 34,-2 0,-17 114,-51 177,-53 18,0 29,-5 26,-10 -4,-6 1,-8 10,-4 10,3 17,2 17,-4 0,-8 39,-10 119,-8 66,2 114,0 108,-4 -7,-5 -1,-5 13,-1 13,4 45,8 71,9 25,1 69,8 97,14 45,11 57,10 111,-9 33,-12 66,-20 73,-17 7,3 3,6 -10,6 -13,1 -21,5 -17,10 3,6 18,6 38,0 44,-12 97,-12 77,1 -10,6 3,8 40,4 41,-4 51,-3 40,5 -11,9 -4,10 30,6 34,-4 40,-3 25,5 -15,8 -9,9 25,4 33,-4 41,-2 30,5 -11,8 5,9 55,5 42,-3 65,-2 58,3 -14,10 35,14 147,15 83,1 111,-3 104,-13 -3,-5 0,-9 5,-9 6,0 11,-8 12,-17 0,-16 2,-15 10,2 7,15 8,10 4,-18 -5,-32 -3,-38 17,-46 29,-11 40,-5 36,22 -3,20 2,22 49,25 41,2 68,-4 124,-29 l 72,-31 91,15 c 196,32 246,60 252,139 4,52 -3,81 -18,72 -8,-5 -9,-1 -4,11 9,23 -2,57 -16,49 -7,-5 -9,-1 -5,9 9,23 -31,59 -56,51 -13,-4 -17,-2 -13,5 5,7 1,8 -10,4 -11,-4 -15,-2 -11,4 16,26 -93,32 -133,7 -17,-10 -18,-13 -5,-9 44,15 58,15 26,0 -19,-9 -41,-13 -48,-11 -7,3 -15,1 -18,-3 -3,-5 -14,-7 -24,-4 -12,3 -23,-2 -30,-15 -9,-16 -16,-18 -51,-12 -22,4 -40,3 -40,-1 0,-5 -8,-9 -17,-9 -13,0 -14,3 -6,8 11,7 -99,38 -119,34 -5,-1 -8,2 -8,6 0,12 -50,33 -61,27 -5,-4 -9,-1 -9,5 0,7 -8,9 -20,5 -14,-4 -20,-2 -18,7 2,8 -5,12 -20,11 -14,-2 -21,1 -17,7 9,14 -59,7 -103,-10 -26,-9 -31,-15 -20,-22 9,-6 3,-7 -17,-4 -16,3 -37,1 -45,-4 -11,-8 -8,-9 15,-5 24,4 26,3 10,-4 -11,-5 -35,-7 -54,-4 -19,3 -31,2 -28,-3 3,-5 -23,-9 -56,-10 -79,-1 -188,-15 -183,-23 2,-3 -66,-7 -152,-9 -86,-2 -162,-8 -167,-12 -6,-5 -22,-9 -36,-8 -52,3 -80,-2 -73,-14 5,-8 2,-9 -12,-4 -10,5 -40,10 -66,11 -26,2 -52,6 -57,10 -6,3 -32,4 -59,1 -32,-4 -41,-3 -27,3 13,6 -9,8 -68,6 -48,-1 -85,0 -82,3 9,9 -128,40 -165,38 -19,-2 -42,3 -50,9 -8,7 -26,15 -40,18 -14,3 -50,14 -80,26 -57,22 -72,23 -132,12 z m 98,-16 c 10,-8 26,-15 34,-15 8,0 28,-7 44,-15 15,-8 32,-12 38,-9 5,3 17,-1 27,-10 11,-10 41,-18 77,-20 32,-2 73,-10 89,-16 36,-15 305,-43 395,-42 99,1 106,1 147,16 26,9 68,12 133,9 65,-4 124,0 185,11 50,9 137,21 195,26 99,8 170,27 215,57 11,7 14,13 8,13 -7,0 -15,-4 -18,-10 -3,-5 -14,-10 -23,-10 -11,0 -8,5 10,14 27,14 54,13 93,-5 49,-22 108,-38 118,-32 5,3 7,1 4,-4 -7,-10 40,-36 59,-32 5,1 20,1 34,0 18,-1 21,-4 12,-10 -16,-10 41,-21 108,-21 47,1 93,23 68,33 -7,3 1,3 18,0 20,-3 49,3 82,17 54,23 69,22 156,-15 15,-7 18,-5 11,6 -4,8 0,6 11,-4 10,-10 19,-23 20,-30 0,-6 2,-21 3,-32 1,-17 3,-18 12,-5 8,12 9,11 4,-6 -6,-23 3,-56 14,-50 3,2 5,-13 3,-35 -2,-21 -8,-42 -13,-45 -14,-8 -11,-26 4,-18 7,4 9,3 4,-2 -5,-5 -12,-9 -15,-10 -24,-2 -160,-49 -178,-61 -13,-8 -31,-13 -41,-10 -15,4 -14,5 4,6 12,0 24,5 27,9 3,5 -17,4 -44,-2 -33,-7 -46,-13 -37,-19 7,-5 2,-5 -13,-1 -14,5 -36,8 -49,7 -16,-1 -20,2 -11,7 24,15 -44,39 -117,42 -39,2 -69,6 -66,10 2,5 0,8 -5,8 -11,0 -37,-29 -47,-55 -7,-17 -10,-13 -14,20 -5,35 -11,43 -51,62 -34,17 -58,21 -95,18 -43,-3 -45,-3 -15,4 23,6 28,9 13,10 -12,0 -45,-4 -73,-11 -41,-9 -48,-14 -34,-20 13,-5 9,-6 -11,-3 -33,6 -171,-8 -250,-25 -27,-6 -84,-13 -126,-15 -42,-2 -82,-6 -90,-8 -8,-2 -10,-2 -5,1 16,8 -55,32 -96,32 -48,0 -133,-21 -120,-29 11,-7 -142,-4 -263,5 -44,3 -96,5 -115,6 -28,0 -31,2 -15,8 17,7 15,9 -12,9 -17,1 -34,5 -37,10 -3,5 -15,7 -25,4 -11,-3 -38,5 -59,17 -26,15 -51,21 -71,18 -17,-2 -31,-1 -31,4 0,4 -14,8 -30,8 -17,0 -44,7 -60,15 -16,9 -49,18 -72,21 -44,6 -103,-9 -94,-24 2,-4 -11,-6 -30,-4 -19,2 -34,0 -34,-5 0,-11 -24,-14 -120,-16 -73,-2 -105,-11 -95,-26 9,-16 -45,-55 -78,-55 -21,-1 -31,-6 -29,-14 2,-10 -2,-10 -18,-2 -11,6 -20,21 -20,35 0,13 -4,27 -10,30 -5,3 -10,17 -10,30 0,13 -8,36 -17,53 -21,36 -12,59 24,68 15,4 45,23 66,43 l 38,36 112,5 c 89,4 120,9 143,25 16,10 47,22 69,26 22,3 43,7 46,8 3,0 14,-6 25,-14 z m 1101,-91 c -3,-3 -12,-4 -19,-1 -8,3 -5,6 6,6 11,1 17,-2 13,-5 z m 470,-180 c -3,-3 -12,-4 -19,-1 -8,3 -5,6 6,6 11,1 17,-2 13,-5 z m -650,-40 c -3,-3 -12,-4 -19,-1 -8,3 -5,6 6,6 11,1 17,-2 13,-5 z m 88,-12 c -3,-3 -11,0 -18,7 -9,10 -8,11 6,5 10,-3 15,-9 12,-12 z m -132,1 c -7,-2 -19,-2 -25,0 -7,3 -2,5 12,5 14,0 19,-2 13,-5 z m 1467,-3 c -8,-5 -22,-9 -30,-9 -10,0 -8,3 5,9 27,12 43,12 25,0 z m -354,-26 c 18,-14 18,-14 -6,-3 -31,14 -36,19 -24,19 6,0 19,-7 30,-16 z m 254,-4 c -8,-5 -22,-9 -30,-9 -10,0 -8,3 5,9 27,12 43,12 25,0 z" />
    <path
       id="path165"
       d="m 196,162 -19,-27 26,24 c 28,26 32,31 20,31 -5,0 -17,-13 -27,-28 z" />
  </g>
</svg>
