<svg viewBox="0 0 1500 400" height="400" width="1500" id="viz" version="1.0">
  <g transform="scale(0.0965 0.0965) translate(260 210) rotate(180 4475 755)">
    <path d="M1502 1512 c-77 -2 -104 -6 -108 -17 -3 -7 -12 -11 -20 -8 -8 3 -22 -1 -32 -10 -9 -8 -27 -18 -39 -21 -13 -4 -23 -12 -23 -17 0 -5 -6 -9 -14 -9 -8 0 -16 -7 -20 -15 -3 -8 -14 -15 -24 -15 -11 0 -36 -7 -55 -15 -29 -12 -90 -15 -315 -15 -236 0 -281 -2 -292 -15 -7 -8 -21 -15 -32 -15 -10 0 -21 -7 -24 -15 -4 -10 -20 -15 -45 -15 -21 0 -39 -5 -39 -10 0 -6 -7 -13 -15 -16 -27 -11 -115 -105 -115 -124 0 -14 -11 -22 -40 -30 -22 -6 -40 -13 -40 -16 0 -2 12 -9 27 -15 20 -7 23 -13 15 -21 -9 -9 -20 -8 -47 5 -71 34 -127 14 -166 -58 -27 -50 -26 -147 2 -191 11 -19 24 -34 28 -34 8 0 29 -87 38 -157 3 -23 11 -47 19 -54 8 -6 14 -23 14 -38 0 -14 7 -35 15 -45 8 -11 15 -36 15 -56 0 -28 8 -44 36 -71 l35 -34 111 2 c79 2 118 7 134 18 13 8 34 15 48 15 13 0 26 7 30 15 3 8 12 15 21 15 8 0 15 5 15 10 0 6 11 15 25 20 14 5 25 14 25 20 0 5 6 10 14 10 8 0 16 7 20 15 3 8 15 15 26 15 11 0 23 7 26 15 4 8 16 15 28 15 12 0 31 7 42 15 10 8 41 15 69 15 28 0 75 7 105 15 30 8 82 15 116 15 37 0 68 6 80 15 10 8 33 15 50 15 18 0 34 6 37 14 3 8 16 16 28 18 31 4 35 24 7 31 -18 5 -20 9 -11 18 10 10 16 9 30 -3 24 -22 188 -25 200 -4 4 8 19 16 32 18 32 4 37 22 9 35 -13 6 -18 12 -11 16 6 4 18 0 27 -9 9 -8 28 -14 43 -12 32 4 44 28 14 28 -12 0 -21 6 -21 15 0 20 39 20 46 0 4 -11 21 -15 59 -15 38 0 55 -4 59 -15 3 -9 18 -15 36 -15 17 0 38 7 46 15 9 8 26 15 40 15 14 0 24 6 24 14 0 16 -21 26 -58 26 -15 0 -36 7 -46 15 -26 19 -72 19 -80 0 -3 -8 -17 -15 -31 -15 -14 0 -28 7 -31 15 -7 17 -69 21 -79 6 -3 -6 -30 -21 -60 -35 -29 -14 -57 -31 -60 -36 -3 -6 -48 -10 -99 -10 -71 0 -97 -4 -106 -15 -7 -8 -18 -15 -25 -15 -7 0 -18 -7 -25 -15 -7 -8 -23 -15 -35 -15 -12 0 -28 -7 -35 -15 -8 -10 -31 -15 -72 -15 -32 0 -75 -7 -95 -15 -19 -8 -65 -15 -102 -15 -39 0 -78 -6 -95 -15 -15 -8 -38 -15 -50 -15 -11 -1 -39 -12 -61 -25 -22 -14 -50 -30 -62 -37 -13 -6 -23 -15 -23 -20 0 -4 -6 -8 -13 -8 -7 0 -24 -13 -37 -28 -25 -28 -99 -62 -135 -62 -11 0 -41 -7 -66 -16 -45 -17 -47 -16 -78 7 -26 19 -31 29 -27 50 3 15 -1 35 -9 45 -8 11 -15 28 -15 39 0 11 -7 31 -16 44 -10 13 -18 51 -21 89 -5 71 -28 129 -70 178 -21 24 -24 37 -21 75 3 25 13 58 24 72 17 24 25 26 85 27 64 0 105 17 131 55 4 5 13 19 20 29 27 39 84 94 106 100 12 4 22 12 22 17 0 5 7 9 15 9 9 0 41 14 72 30 l56 30 211 1 c200 0 324 8 391 25 27 7 122 66 135 84 3 4 21 11 40 15 19 4 41 12 47 17 7 6 62 12 121 15 84 3 112 1 123 -9 24 -24 78 -47 127 -54 26 -3 54 -12 62 -18 8 -6 31 -20 50 -31 19 -10 41 -25 48 -31 8 -9 29 -11 60 -8 48 6 75 -2 127 -36 17 -11 37 -22 45 -26 8 -3 24 -10 35 -16 11 -6 90 -13 176 -14 114 -3 164 -8 185 -19 16 -8 45 -15 64 -15 19 0 44 -7 54 -15 11 -8 30 -15 42 -15 12 0 35 -7 50 -15 20 -10 59 -15 119 -15 50 0 95 -4 100 -9 6 -5 82 -13 170 -16 91 -4 179 -13 203 -21 23 -8 64 -14 90 -14 27 0 54 -6 60 -13 12 -11 109 -13 302 -8 19 1 61 -1 93 -5 44 -4 63 -2 82 10 18 12 49 16 118 16 72 0 98 4 107 15 7 8 25 15 40 15 15 0 33 7 40 15 10 12 40 15 151 15 120 0 139 2 148 17 11 20 106 26 229 16 118 -10 82 -23 -61 -21 -75 0 -142 -4 -152 -9 -17 -10 -17 -11 5 -23 28 -15 328 -6 345 11 5 5 38 9 75 9 38 0 77 6 94 15 15 8 47 15 70 15 22 1 59 7 81 15 22 8 61 15 86 15 25 0 54 7 65 15 12 9 43 14 87 15 37 0 84 7 104 15 27 11 78 15 217 15 145 0 186 3 202 15 10 8 40 15 65 15 25 0 54 7 65 15 10 8 33 15 50 15 16 0 39 7 50 15 10 8 28 15 40 15 11 0 29 7 40 15 10 8 26 15 35 15 9 0 45 21 79 46 47 35 73 47 112 51 38 5 54 2 62 -8 23 -31 70 -59 97 -59 15 0 29 -5 31 -11 2 -5 24 -13 48 -16 25 -3 54 -12 65 -19 11 -8 33 -14 50 -14 21 0 37 -9 55 -30 17 -20 34 -30 52 -30 16 0 28 -4 28 -9 0 -5 10 -13 22 -17 12 -3 28 -13 36 -20 7 -8 21 -14 30 -14 9 0 26 -7 36 -15 11 -8 30 -15 42 -15 12 0 27 -7 34 -15 9 -10 32 -15 77 -15 36 0 73 -6 86 -14 14 -9 56 -14 120 -14 55 -1 120 -8 149 -17 81 -24 100 -20 154 30 26 25 57 45 68 45 12 0 34 7 50 15 15 8 43 15 61 15 18 0 38 7 45 15 7 8 23 15 35 15 12 0 28 7 35 15 7 8 25 15 39 15 15 0 36 7 47 15 10 8 29 15 40 15 12 0 27 7 34 15 7 8 28 15 46 15 22 0 34 5 34 14 0 14 67 32 78 21 4 -4 -4 -15 -18 -26 -21 -16 -23 -20 -10 -29 8 -5 20 -10 26 -10 6 0 17 -7 24 -15 7 -8 23 -15 35 -15 12 0 28 -7 35 -15 7 -8 20 -15 30 -15 10 0 23 -7 30 -15 7 -8 21 -15 31 -15 10 0 22 -6 26 -13 4 -7 26 -27 48 -44 22 -17 48 -48 58 -70 10 -21 25 -51 33 -66 8 -16 14 -39 14 -52 0 -13 7 -30 15 -39 8 -8 15 -22 15 -32 0 -10 8 -26 18 -37 24 -27 23 -198 -2 -226 -9 -9 -16 -22 -16 -26 0 -16 -93 -95 -111 -95 -9 0 -22 -7 -29 -15 -7 -8 -23 -15 -35 -15 -12 0 -28 -7 -35 -15 -7 -8 -25 -15 -39 -15 -15 0 -36 -7 -47 -15 -10 -8 -41 -15 -69 -15 -27 0 -63 -7 -79 -15 -15 -8 -45 -15 -65 -15 -20 0 -49 -7 -65 -15 -15 -8 -48 -15 -72 -15 -24 0 -64 -7 -90 -16 -54 -18 -251 -25 -262 -8 -9 13 -89 54 -106 54 -7 0 -26 13 -42 30 -27 28 -34 29 -106 30 -42 0 -79 4 -82 9 -3 4 -56 12 -118 15 -62 4 -127 12 -144 18 -52 18 -111 -18 -141 -84 -21 -46 -40 -35 -48 29 -7 61 -29 103 -51 103 -8 0 -33 13 -56 30 -22 16 -47 30 -53 30 -7 0 -18 7 -25 15 -7 8 -25 15 -40 15 -15 0 -41 7 -56 15 -16 8 -39 15 -52 15 -12 0 -34 7 -47 16 -35 23 -209 16 -245 -9 -13 -9 -35 -17 -47 -17 -13 0 -23 -4 -23 -9 0 -12 -97 -44 -113 -38 -7 3 -67 -2 -132 -10 -66 -8 -191 -18 -277 -21 -104 -5 -161 -11 -170 -19 -6 -7 -26 -13 -44 -13 -17 0 -48 -7 -67 -15 -20 -8 -62 -15 -94 -15 -32 0 -71 -7 -87 -15 -20 -10 -59 -15 -131 -15 -66 0 -118 -5 -145 -15 -61 -21 -285 -21 -294 0 -3 8 -10 15 -16 15 -5 0 -32 14 -58 30 l-49 30 -169 0 c-130 0 -176 -4 -198 -15 -15 -8 -43 -15 -60 -15 -18 0 -41 -7 -52 -15 -10 -8 -33 -15 -49 -15 -17 0 -40 -7 -53 -15 -18 -13 -48 -15 -184 -11 -820 25 -799 24 -817 40 -10 9 -31 16 -48 16 -17 0 -48 7 -69 16 -26 11 -54 14 -86 11 -36 -5 -48 -3 -48 7 0 21 -23 26 -110 26 -53 0 -89 5 -112 17 -18 9 -46 23 -63 31 -16 9 -46 28 -66 44 -20 15 -43 28 -51 28 -8 0 -19 5 -25 11 -7 7 -73 13 -170 15 -149 4 -236 17 -283 45 -34 21 -44 21 -74 6 -17 -8 -43 -18 -58 -21 -16 -4 -28 -13 -28 -21 0 -12 14 -15 60 -15 34 0 60 -4 60 -10 0 -6 11 -15 25 -20 14 -5 25 -14 25 -20 0 -16 80 -12 96 5 12 12 45 15 164 15 88 0 151 -4 155 -10 3 -5 1 -10 -5 -10 -74 0 -295 -12 -303 -17 -25 -15 31 -23 172 -23 126 0 158 3 172 16 11 10 19 12 24 5 3 -6 -1 -14 -9 -17 -25 -10 -19 -34 8 -34 13 0 26 -7 30 -15 3 -8 12 -15 20 -15 7 0 16 -7 20 -15 3 -8 16 -15 30 -15 13 0 26 -7 30 -15 4 -12 26 -15 109 -15 81 0 107 -3 117 -15 8 -9 30 -15 60 -15 30 0 52 -6 60 -15 14 -17 105 -21 115 -5 3 6 14 10 23 10 13 -1 12 -4 -6 -13 -59 -33 78 -53 151 -22 40 17 87 20 87 6 0 -5 -18 -12 -40 -16 -47 -8 -60 -22 -28 -30 13 -3 230 -4 482 -3 331 2 460 6 463 14 2 7 -12 15 -32 18 -19 4 -33 11 -30 17 10 14 51 11 65 -7 9 -9 26 -14 48 -12 40 3 55 25 21 30 -12 2 -24 9 -27 16 -5 17 33 15 48 -3 14 -17 96 -20 215 -8 67 7 68 7 30 14 -22 5 -68 8 -102 8 -34 1 -68 4 -77 7 -44 17 1 22 174 21 104 -1 190 -5 190 -8 0 -11 -29 -19 -65 -19 -19 0 -36 -4 -39 -9 -7 -11 27 -21 74 -21 26 -1 41 -8 60 -30 18 -23 33 -30 60 -30 19 0 44 -7 54 -15 26 -20 192 -20 266 0 30 8 80 15 110 16 30 0 66 4 80 9 39 11 8 19 -90 22 -48 2 -85 7 -85 13 0 17 152 18 187 0 34 -17 144 -20 168 -5 16 10 12 12 -44 25 -23 5 -27 8 -15 16 22 14 56 11 73 -7 11 -11 31 -14 68 -12 58 3 75 23 29 33 -17 4 -31 11 -31 16 0 15 36 10 50 -6 17 -21 108 -21 116 0 5 13 35 15 183 15 136 0 181 3 197 14 11 8 51 16 89 19 89 6 187 29 193 45 2 6 14 12 27 12 13 0 37 12 54 26 24 20 34 23 50 15 11 -6 42 -11 69 -11 32 0 54 -5 62 -15 7 -8 29 -15 50 -15 24 0 40 -5 44 -15 7 -20 60 -19 91 1 14 9 25 12 25 6 0 -6 -9 -14 -21 -17 -28 -9 -18 -29 17 -33 16 -2 33 -10 37 -18 4 -8 15 -14 23 -14 9 0 29 -12 45 -27 26 -25 29 -34 29 -90 0 -67 16 -106 57 -136 24 -18 25 -18 59 5 25 17 34 30 34 52 0 16 8 47 18 67 l17 38 86 1 c48 0 107 -7 135 -15 56 -17 234 -21 234 -5 0 6 8 10 18 10 16 -1 15 -2 -2 -15 -18 -14 -18 -15 5 -39 14 -15 35 -26 50 -26 15 0 32 -7 39 -15 7 -8 20 -15 30 -15 10 0 20 -7 24 -15 3 -8 14 -15 24 -15 11 0 25 -6 31 -14 8 -10 30 -12 84 -8 39 2 76 8 82 13 5 5 36 9 70 9 34 0 72 7 89 15 15 8 49 15 75 15 59 0 80 12 62 34 -12 14 -10 16 7 16 12 0 24 -5 27 -10 10 -16 101 -12 115 5 9 11 33 15 87 15 56 0 75 4 79 15 4 9 19 15 39 15 20 0 35 6 39 15 3 9 18 15 39 15 19 0 40 7 47 15 7 8 17 15 22 15 5 0 16 6 23 13 8 6 28 23 45 37 18 14 30 34 30 47 0 13 -2 23 -4 23 -2 0 -24 -20 -49 -45 -26 -25 -53 -45 -62 -45 -8 0 -15 -7 -15 -16 0 -11 -8 -14 -27 -12 -35 4 -37 22 -3 26 14 2 29 10 33 18 4 8 15 14 22 14 8 0 15 4 15 8 0 5 16 25 35 45 19 20 35 43 35 52 0 19 16 20 24 0 8 -22 36 -18 36 5 0 11 -6 20 -14 20 -19 0 -25 22 -25 103 -1 54 3 71 19 87 20 20 28 70 11 70 -5 0 -14 -7 -21 -15 -14 -17 -40 -20 -40 -4 0 6 7 23 16 39 17 27 14 60 -5 60 -5 0 -11 -10 -13 -22 -2 -12 -9 -23 -15 -26 -19 -6 -16 47 2 54 19 8 19 38 0 54 -9 7 -15 29 -15 54 0 35 -6 46 -45 83 -25 23 -45 46 -45 51 0 8 -30 37 -87 82 -7 6 -23 10 -37 10 -13 0 -26 7 -30 15 -3 9 -18 15 -40 15 -21 0 -36 6 -40 15 -3 9 -18 15 -40 15 -21 0 -36 6 -40 15 -8 21 -154 21 -182 0 -10 -8 -38 -15 -60 -15 -28 0 -44 -5 -48 -15 -3 -8 -14 -15 -25 -15 -11 0 -24 -6 -28 -14 -4 -8 -26 -16 -47 -18 -46 -4 -56 -20 -24 -36 l23 -11 -22 0 c-12 -1 -25 4 -28 9 -10 15 -71 12 -85 -5 -7 -8 -23 -15 -35 -15 -12 0 -28 -7 -35 -15 -7 -8 -19 -15 -27 -15 -7 0 -16 -7 -19 -15 -4 -8 -12 -15 -20 -15 -19 0 -17 -20 3 -36 28 -20 5 -30 -26 -11 -16 9 -44 17 -63 17 -18 1 -44 7 -58 15 -16 9 -55 14 -111 15 -68 0 -88 3 -93 15 -4 11 -23 15 -79 15 -54 0 -78 4 -87 15 -7 8 -20 15 -30 15 -10 0 -20 7 -24 15 -3 9 -19 15 -41 15 -22 0 -38 6 -41 15 -4 8 -11 15 -17 15 -6 0 -41 20 -78 45 -56 38 -75 45 -116 45 -26 0 -57 7 -67 15 -11 8 -32 15 -47 15 -15 0 -29 7 -33 16 -4 10 -16 14 -38 12 -25 -2 -39 3 -59 25 -22 23 -34 27 -80 27 -49 0 -111 -15 -164 -40 -11 -5 -29 -10 -39 -12 -28 -4 -31 -25 -6 -33 17 -5 19 -10 10 -18 -8 -9 -15 -8 -24 6 -16 21 -49 22 -66 2 -7 -8 -23 -15 -35 -15 -12 0 -28 -7 -35 -15 -9 -11 -33 -15 -87 -15 -56 0 -75 -4 -79 -15 -4 -11 -22 -15 -58 -16 -58 0 -101 -13 -76 -22 8 -3 32 -8 53 -12 20 -3 37 -11 37 -17 0 -13 -99 -3 -114 12 -13 13 -365 13 -386 0 -19 -12 -13 -16 43 -26 26 -5 48 -13 47 -19 -1 -13 -58 -7 -96 11 -38 18 -165 16 -172 -3 -2 -8 5 -13 16 -13 27 0 52 -10 52 -21 0 -15 -57 -10 -74 6 -21 21 -178 21 -196 0 -7 -8 -34 -15 -68 -17 -33 -2 -57 -8 -60 -15 -2 -9 7 -13 26 -13 36 0 62 -9 62 -21 0 -15 -78 -10 -94 6 -12 12 -52 15 -231 15 -177 0 -220 3 -239 15 -30 20 -197 17 -204 -2 -3 -10 22 -13 102 -13 58 0 106 -4 106 -9 0 -15 -29 -21 -110 -21 -57 0 -83 4 -94 15 -19 20 -85 20 -92 0 -4 -8 -17 -15 -31 -15 -13 0 -33 -5 -44 -11 -20 -10 -20 -11 -3 -23 29 -22 -89 -33 -121 -12 -31 20 -91 21 -102 2 -6 -12 -40 -16 -153 -19 -80 -3 -170 -9 -200 -15 -57 -10 -111 1 -57 12 15 3 39 9 55 12 l27 7 -25 7 c-14 5 -63 9 -110 9 -58 1 -91 6 -104 16 -16 12 -54 15 -175 15 -121 1 -160 4 -175 15 -22 17 -127 21 -154 6 -23 -12 -82 -2 -82 14 0 16 -22 25 -63 25 -18 0 -41 7 -51 15 -11 8 -39 15 -62 15 -28 0 -44 5 -48 15 -4 11 -21 15 -64 15 -41 0 -64 5 -72 15 -7 9 -29 15 -52 15 -25 0 -41 -5 -44 -15 -7 -18 -61 -20 -66 -3 -3 7 -29 13 -62 15 -47 3 -66 9 -96 33 -21 17 -47 30 -58 30 -12 0 -24 5 -27 10 -11 19 -50 10 -69 -15 -10 -14 -25 -25 -32 -25 -16 0 -19 16 -4 25 17 11 11 25 -15 35 -14 5 -25 14 -25 20 0 5 -6 10 -14 10 -7 0 -27 7 -42 15 -16 8 -43 15 -61 15 -17 0 -44 6 -60 14 -78 39 -105 43 -261 38z m4692 -178 c31 -12 15 -25 -26 -22 -49 4 -66 28 -20 28 17 0 37 -3 46 -6z m876 -9 c0 -8 -7 -15 -15 -15 -8 0 -15 7 -15 15 0 8 7 15 15 15 8 0 15 -7 15 -15z m1198 -2 c2 -9 -7 -13 -27 -13 -21 0 -31 5 -31 16 0 19 51 16 58 -3z m392 -23 c0 -6 -7 -13 -15 -16 -20 -8 -48 3 -40 16 8 13 55 13 55 0z m60 -35 c0 -16 -35 -21 -44 -6 -8 12 4 21 26 21 10 0 18 -7 18 -15z m-3441 -51 c52 -11 35 -25 -26 -22 -34 2 -58 8 -61 16 -4 13 35 16 87 6z m-4026 -540 c11 -11 -3 -24 -18 -18 -8 4 -12 10 -9 15 6 11 18 12 27 3z m-519 -123 c3 -4 3 -11 0 -14 -8 -8 -34 3 -34 14 0 11 27 12 34 0z m-57 -47 c-9 -9 -28 6 -21 18 4 6 10 6 17 -1 6 -6 8 -13 4 -17z m2363 -13 c0 -9 -52 -22 -60 -15 -7 7 23 24 43 24 9 0 17 -4 17 -9z m4030 -5 c0 -8 -4 -17 -9 -21 -12 -7 -24 12 -16 25 9 15 25 12 25 -4z m-2278 -31 c0 -5 -5 -11 -11 -13 -6 -2 -11 4 -11 13 0 9 5 15 11 13 6 -2 11 -8 11 -13z m-1217 -25 c4 -6 -5 -10 -20 -10 -15 0 -24 4 -20 10 3 6 12 10 20 10 8 0 17 -4 20 -10z m1270 0 c3 -5 -3 -10 -15 -10 -12 0 -18 5 -15 10 3 6 10 10 15 10 5 0 12 -4 15 -10z m2710 0 c-3 -5 -15 -10 -26 -10 -10 0 -19 5 -19 10 0 6 12 10 26 10 14 0 23 -4 19 -10z m1193 -7 c2 -9 -7 -13 -27 -13 -21 0 -31 5 -31 16 0 19 51 16 58 -3z m-3610 -19 c54 -15 12 -24 -107 -24 -116 0 -165 9 -129 23 18 8 209 8 236 1z m3542 -9 c0 -16 -35 -20 -65 -9 -13 5 -14 8 -3 15 22 15 68 11 68 -6z m-190 -25 c12 -8 9 -10 -13 -10 -16 0 -26 4 -22 10 8 12 16 12 35 0z m-1387 -14 c6 -16 -2 -28 -14 -20 -12 7 -11 34 0 34 5 0 11 -6 14 -14z m768 -59 c-13 -13 -26 -3 -16 12 3 6 11 8 17 5 6 -4 6 -10 -1 -17z"/>

    <!--crosshairs-->
    <!--
    <circle cx="4475" cy="755" r="35" fill="red"></circle>
    <line x1="4475" y1="250" x2="4475" y2="5000" style="stroke:red; stroke-width:5"></line>
    <line x1="0" y1="755" x2="30000" y2="755" style="stroke:red; stroke-width:5"></line>
    -->
</g>
</svg>
