<svg viewBox="0 0 1500 400" height="400" width="1500" id="viz" version="1.0">
  <g transform="translate(10,390) scale(0.36,-0.36)">
    <!--crosshairs-->
    <!--
    <circle cx="1457" cy="810" r="15" fill="red"></circle>
    <line x1="1457" y1="250" x2="1457" y2="1500" style="stroke:red; stroke-width:5"></line>
    <line x1="0" y1="810" x2="3000" y2="810" style="stroke:red; stroke-width:5"></line>
    -->

    <path d="M1253 1053 c5 -7 -22 -10 -81 -8 -90 4 -123 -3 -207 -40 -56 -25 -130 -43 -105 -26 12 9 10 11 -11 11 -45 0 -131 -31 -154 -56 -12 -13 -34 -24 -47 -24 -14 0 -45 -7 -68 -15 -71 -25 -140 -20 -184 13 -39 29 -75 32 -104 9 -8 -6 -12 -6 -12 2 0 6 -12 17 -27 26 -16 9 -41 24 -58 35 -81 53 -122 69 -151 61 -23 -7 -25 -10 -13 -15 10 -4 23 -6 31 -4 17 4 89 -31 104 -51 6 -8 18 -11 28 -8 9 4 15 3 12 -2 -3 -5 12 -21 35 -35 31 -21 47 -25 73 -21 26 5 43 0 81 -24 27 -17 60 -31 73 -31 30 0 114 20 128 31 6 5 30 10 53 11 23 1 46 7 52 15 6 7 8 13 3 13 -5 0 8 9 29 20 20 11 46 20 57 20 11 0 20 4 20 9 0 5 18 3 39 -5 42 -14 42 -14 146 31 59 25 71 28 180 32 218 7 303 8 299 1 -7 -12 19 -22 76 -30 119 -16 157 -25 205 -50 28 -15 61 -30 75 -34 14 -4 54 -33 90 -64 78 -68 106 -77 171 -54 44 16 51 16 86 1 21 -8 55 -18 75 -22 20 -3 50 -12 65 -20 15 -8 37 -15 48 -15 20 0 50 34 41 48 -4 6 32 12 101 16 12 0 25 4 29 9 15 15 43 6 47 -15 4 -20 4 -19 6 5 1 23 5 27 32 27 17 0 40 5 51 11 15 8 35 7 79 -6 33 -9 63 -14 68 -10 5 3 22 0 37 -7 26 -12 27 -13 21 -90 -3 -43 -1 -80 3 -83 5 -3 10 36 12 86 l3 91 -29 15 c-15 8 -37 12 -48 10 -10 -3 -39 1 -64 10 -27 9 -56 12 -72 8 -15 -3 -43 -8 -62 -10 -19 -2 -36 -8 -38 -14 -2 -6 -11 -11 -20 -11 -15 0 -15 2 -2 11 12 9 11 9 -5 4 -11 -5 -32 -10 -47 -13 -16 -2 -28 -8 -28 -13 0 -5 -7 -6 -15 -3 -8 4 -23 3 -32 -2 -10 -4 -22 -8 -26 -8 -13 -1 -37 -38 -31 -47 3 -5 -5 -9 -18 -9 -16 0 -19 3 -10 8 8 6 1 12 -24 20 -21 6 -42 8 -47 5 -6 -3 -7 -1 -3 5 5 8 -3 12 -23 12 -17 0 -47 9 -67 19 -37 20 -88 19 -109 -1 -7 -7 -1 -8 15 -3 14 4 22 4 18 0 -10 -11 -118 -14 -124 -4 -3 5 3 6 13 2 10 -3 0 7 -22 22 -22 15 -60 45 -83 67 -32 30 -50 39 -68 35 -13 -2 -21 -1 -19 3 2 4 -27 21 -64 40 -49 23 -78 31 -103 28 -21 -2 -40 2 -47 10 -8 8 -28 11 -54 9 -28 -3 -45 1 -52 10 -12 17 -242 33 -232 16z m314 -39 c-3 -3 -12 -4 -19 -1 -8 3 -5 6 6 6 11 1 17 -2 13 -5z m111 -21 c-10 -2 -28 -2 -40 0 -13 2 -5 4 17 4 22 1 32 -1 23 -4z m212 -98 c13 -14 21 -25 18 -25 -2 0 -15 11 -28 25 -13 14 -21 25 -18 25 2 0 15 -11 28 -25z m-1392 -32 c-10 -2 -26 -2 -35 0 -10 3 -2 5 17 5 19 0 27 -2 18 -5z"/>
    <path d="M1792 1000 c0 -14 2 -19 5 -12 2 6 2 18 0 25 -3 6 -5 1 -5 -13z"/>
    <path d="M29 901 c-2 -62 -1 -118 3 -125 4 -6 8 5 9 24 4 112 3 149 -2 180 -4 22 -8 -9 -10 -79z"/>
    <path d="M1320 855 c-132 -34 -160 -38 -240 -41 -46 -2 -144 -8 -218 -14 -74 -6 -149 -8 -168 -4 -46 9 -87 -3 -80 -22 3 -8 1 -12 -4 -9 -5 3 -15 -4 -22 -15 -16 -27 -72 -56 -123 -65 -45 -8 -88 -32 -80 -44 6 -10 -27 -9 -35 0 -11 14 -131 59 -156 59 -25 0 -68 15 -128 46 -36 18 -49 7 -17 -14 33 -22 86 -42 141 -52 25 -5 71 -20 103 -34 32 -14 65 -26 75 -26 21 0 64 29 58 39 -3 4 11 5 29 3 48 -6 119 31 152 78 30 42 28 42 136 25 15 -3 26 -1 22 4 -3 5 4 7 15 4 12 -3 20 0 20 7 0 7 7 10 16 6 26 -10 354 6 347 17 -3 5 3 6 16 2 30 -9 88 4 70 16 -9 6 0 7 25 3 26 -5 37 -3 32 4 -4 6 2 8 16 4 15 -3 19 -2 14 7 -5 8 -1 10 16 7 12 -3 41 -8 63 -11 22 -4 69 -23 105 -42 144 -80 213 -113 234 -113 14 0 35 -15 55 -40 26 -33 38 -40 67 -40 19 0 44 5 55 10 13 8 30 7 57 0 32 -10 43 -8 77 10 22 12 31 18 20 15 -16 -5 -18 -4 -8 6 13 13 37 4 133 -51 53 -31 101 -26 187 20 45 24 81 36 87 32 12 -9 91 10 81 19 -3 3 10 3 28 0 21 -4 45 -19 65 -42 32 -36 85 -59 138 -59 33 1 111 54 94 65 -14 9 -42 -14 -33 -28 3 -6 1 -7 -6 -3 -6 4 -17 3 -24 -2 -20 -16 -76 -20 -81 -5 -3 7 -14 13 -24 13 -10 0 -37 20 -60 45 -45 49 -49 51 -107 30 -22 -8 -58 -15 -81 -15 -26 0 -54 -8 -76 -23 -74 -51 -128 -58 -191 -26 -23 12 -44 22 -47 21 -3 0 -9 6 -13 14 -10 18 -57 18 -84 -1 -14 -10 -43 -15 -80 -14 -32 0 -76 -2 -98 -6 -39 -6 -41 -5 -67 39 -23 39 -32 46 -58 46 -30 0 -118 40 -218 99 -43 25 -142 63 -161 60 -3 0 -31 -7 -61 -14z m-93 -41 c-3 -3 -12 -4 -19 -1 -8 3 -5 6 6 6 11 1 17 -2 13 -5z m-110 -10 c-3 -3 -12 -4 -19 -1 -8 3 -5 6 6 6 11 1 17 -2 13 -5z m-430 -20 c-3 -3 -12 -4 -19 -1 -8 3 -5 6 6 6 11 1 17 -2 13 -5z m983 -60 c0 -2 -13 2 -30 11 -16 9 -30 18 -30 21 0 2 14 -2 30 -11 17 -9 30 -18 30 -21z m40 -14 c8 -5 11 -10 5 -10 -5 0 -17 5 -25 10 -8 5 -10 10 -5 10 6 0 17 -5 25 -10z m68 -17 c-10 -2 -26 -2 -35 0 -10 3 -2 5 17 5 19 0 27 -2 18 -5z m249 -79 c-3 -3 -12 -4 -19 -1 -8 3 -5 6 6 6 11 1 17 -2 13 -5z"/>
  </g>
</svg>
