<?xml version="1.0" encoding="UTF-8" standalone="no"?>
<svg
   xmlns:dc="http://purl.org/dc/elements/1.1/"
   xmlns:cc="http://creativecommons.org/ns#"
   xmlns:rdf="http://www.w3.org/1999/02/22-rdf-syntax-ns#"
   xmlns:svg="http://www.w3.org/2000/svg"
   xmlns="http://www.w3.org/2000/svg"
   xmlns:sodipodi="http://sodipodi.sourceforge.net/DTD/sodipodi-0.dtd"
   xmlns:inkscape="http://www.inkscape.org/namespaces/inkscape"
   inkscape:version="1.0 (4035a4f, 2020-05-01)"
   sodipodi:docname="A015.svg"
   id="svg294"
   preserveAspectRatio="xMidYMid meet"
   viewBox="0 0 1125 300"
   height="400"
   width="1500"
   version="1.0">
  <defs
     id="defs298" />
  <sodipodi:namedview
     inkscape:current-layer="svg294"
     inkscape:window-maximized="1"
     inkscape:window-y="23"
     inkscape:window-x="0"
     inkscape:cy="150"
     inkscape:cx="600"
     inkscape:zoom="1"
     units="px"
     showgrid="false"
     id="namedview296"
     inkscape:window-height="1075"
     inkscape:window-width="1792"
     inkscape:pageshadow="2"
     inkscape:pageopacity="0"
     guidetolerance="10"
     gridtolerance="10"
     objecttolerance="10"
     borderopacity="1"
     bordercolor="#666666"
     pagecolor="#ffffff" />
  <metadata
     id="metadata278">
Created by potrace 1.10, written by Peter Selinger 2001-2011
<rdf:RDF>
  <cc:Work
     rdf:about="">
    <dc:format>image/svg+xml</dc:format>
    <dc:type
       rdf:resource="http://purl.org/dc/dcmitype/StillImage" />
    <dc:title></dc:title>
  </cc:Work>
</rdf:RDF>
</metadata>
  <g
     id="g292"
     stroke="none"
     fill="#000000"
     transform="matrix(0.09471193,0.02513213,0.02494055,-0.09543945,-19.535341,175.89873)">
    <path
       id="path280"
       d="m 7839,2152 c -168,-2 -209,-5 -219,-17 -7,-8 -23,-15 -36,-15 -27,0 -42,-19 -23,-31 7,-4 10,-11 6,-16 -5,-4 -12,-1 -17,7 -8,13 -14,13 -42,1 -18,-7 -51,-17 -73,-21 -22,-4 -53,-12 -68,-19 -16,-6 -80,-11 -143,-11 -93,0 -116,-3 -120,-15 -5,-12 -25,-15 -94,-15 -65,0 -93,-4 -104,-15 -8,-8 -32,-15 -53,-15 -22,0 -48,-7 -59,-15 -10,-8 -35,-15 -55,-15 -20,0 -42,-7 -49,-15 -7,-8 -27,-15 -44,-15 -18,0 -41,-7 -52,-15 -12,-9 -43,-14 -86,-15 -52,0 -68,-3 -68,-14 0,-8 10,-16 22,-18 12,-2 23,-9 26,-17 3,-10 -2,-11 -19,-6 -13,4 -27,12 -30,18 -11,16 -39,0 -39,-23 0,-22 -27,-27 -58,-11 -9,5 -25,12 -34,15 -10,3 -18,10 -18,16 0,15 37,12 54,-5 17,-17 36,-20 36,-5 0,6 -6,10 -14,10 -7,0 -16,9 -19,20 -3,12 -14,20 -26,20 -11,0 -24,7 -29,16 -6,11 -20,14 -47,12 -54,-4 -59,-28 -6,-28 42,0 62,-14 35,-24 -28,-11 -61,-6 -74,9 -9,11 -27,15 -54,13 -41,-3 -53,-20 -19,-26 38,-7 47,-12 36,-23 -15,-15 -124,9 -143,31 -22,26 -87,44 -114,32 -49,-22 -117,-35 -211,-38 -122,-6 -148,-11 -142,-28 4,-11 -21,-13 -134,-9 -120,4 -140,3 -145,-11 -4,-10 -18,-16 -39,-16 -18,0 -38,-7 -45,-15 -7,-8 -23,-15 -36,-15 -14,0 -41,-17 -68,-45 -25,-25 -55,-45 -66,-45 -11,0 -20,-7 -20,-15 0,-8 5,-15 10,-15 6,0 10,-4 10,-10 0,-5 -22,-10 -50,-10 -49,0 -66,12 -34,24 8,3 12,10 9,16 -9,14 -142,13 -147,-2 -4,-12 -80,-38 -115,-38 -13,0 -23,-4 -23,-8 0,-4 -15,-6 -33,-4 -29,3 -40,-3 -81,-42 -26,-25 -53,-46 -61,-46 -8,0 -15,-7 -15,-15 0,-9 9,-15 21,-15 12,0 19,-5 17,-12 -8,-24 -38,-19 -69,11 -28,29 -36,31 -100,31 -53,0 -71,4 -75,15 -4,11 -21,15 -59,15 -38,0 -55,-4 -59,-15 -3,-8 -17,-15 -31,-15 -16,0 -25,-6 -25,-15 0,-9 9,-15 25,-15 14,0 25,-5 25,-10 0,-19 -30,-22 -55,-6 -24,16 -108,22 -139,10 -27,-10 -18,-24 17,-24 17,0 39,-5 47,-11 15,-10 -46,-7 -131,7 -24,4 -47,1 -66,-9 -19,-10 -34,-12 -44,-6 -11,7 -10,10 9,15 12,4 22,13 22,20 0,21 -153,20 -170,-1 -7,-8 -28,-15 -47,-15 -21,0 -36,-6 -39,-15 -4,-10 -20,-15 -48,-15 -46,0 -81,-15 -56,-24 8,-3 26,-6 39,-8 14,-2 26,-9 29,-16 3,-10 -8,-11 -50,-6 -29,4 -61,11 -70,15 -20,11 -125,12 -130,2 -5,-12 -110,-53 -134,-53 -12,0 -38,-7 -57,-15 -20,-8 -53,-15 -72,-15 -20,0 -46,-5 -58,-12 -12,-7 -58,-15 -101,-18 -79,-5 -109,-21 -66,-35 12,-4 19,-9 16,-13 -3,-3 -16,0 -29,7 -27,15 -119,11 -124,-5 -2,-6 11,-14 28,-18 21,-4 29,-10 23,-16 -11,-11 -54,-2 -54,11 0,15 -57,10 -70,-6 -7,-8 -20,-15 -30,-15 -10,0 -20,-7 -24,-15 -3,-8 -16,-15 -28,-15 -25,0 -110,-72 -121,-102 -4,-10 -13,-18 -22,-18 -16,0 -30,-9 -63,-42 -9,-9 -28,-18 -41,-20 -32,-4 -38,-24 -9,-33 19,-6 20,-8 6,-12 -9,-2 -26,1 -37,6 -26,14 -124,14 -138,0 -6,-6 -26,-9 -44,-7 l -34,4 30,13 c 27,11 28,13 12,23 -19,10 -72,7 -114,-7 -20,-6 -23,-4 -23,19 0,32 -53,86 -85,86 -9,0 -27,26 -46,65 -16,35 -34,67 -40,70 -5,4 -9,15 -9,26 0,11 -7,22 -15,25 -8,4 -15,14 -15,23 0,10 -14,30 -30,46 -17,16 -30,37 -30,47 0,10 -7,21 -15,24 -8,4 -15,12 -15,19 0,8 -30,16 -87,23 -148,19 -243,24 -243,12 0,-5 -8,-10 -17,-10 -17,1 -17,2 1,15 10,7 15,18 11,24 -9,15 -52,14 -58,-1 -2,-7 -8,-9 -13,-5 -5,4 -2,12 5,16 16,10 6,31 -15,31 -8,0 -35,20 -60,45 -24,25 -48,45 -53,45 -5,0 -11,7 -15,15 -3,8 -14,15 -25,15 -10,0 -21,7 -25,15 -3,9 -19,15 -38,15 -18,1 -44,7 -58,15 -17,9 -56,14 -117,15 -75,0 -94,-3 -101,-17 -6,-10 -16,-14 -26,-10 -23,9 -20,27 4,27 27,0 25,18 -2,30 -31,13 -53,32 -61,52 -8,22 -27,24 -27,3 0,-8 -4,-15 -10,-15 -5,0 -10,6 -10,14 0,8 5,18 10,21 16,10 12,47 -8,61 -42,32 -81,15 -172,-73 -30,-29 -88,-84 -127,-122 -62,-59 -73,-74 -73,-103 0,-18 -7,-42 -15,-52 -8,-11 -15,-32 -15,-47 0,-14 -7,-32 -15,-39 -11,-9 -15,-35 -15,-106 0,-51 4,-96 10,-99 6,-3 10,-24 10,-46 0,-24 -4,-38 -10,-34 -5,3 -10,19 -10,36 0,19 -5,29 -15,29 -12,0 -15,-15 -15,-74 0,-53 -4,-77 -15,-86 -26,-22 -20,-138 10,-191 14,-24 27,-51 31,-59 3,-8 12,-27 20,-42 8,-14 14,-35 14,-46 0,-11 7,-25 15,-32 8,-7 15,-19 15,-27 0,-7 7,-16 15,-19 8,-3 17,-14 20,-25 4,-10 13,-19 20,-19 8,0 18,-6 22,-13 13,-21 90,-77 105,-77 8,0 23,-7 34,-15 28,-21 322,-22 330,0 4,8 11,15 18,15 18,0 94,73 98,95 2,10 12,22 23,25 58,15 81,55 50,86 -8,8 -12,21 -9,29 7,18 24,10 24,-11 0,-8 7,-14 15,-14 10,0 15,10 15,30 0,17 -4,30 -10,30 -5,0 -10,9 -10,20 0,11 5,20 10,20 6,0 10,7 10,15 0,9 8,18 18,22 17,6 38,23 70,56 9,9 24,17 33,17 9,0 19,7 23,15 3,8 12,15 19,15 8,0 20,7 27,15 7,9 29,15 51,15 21,0 41,4 44,10 9,15 35,12 42,-6 3,-9 -3,-23 -15,-35 -24,-22 -39,-24 -44,-8 -2,7 -15,9 -35,5 -24,-6 -30,-11 -26,-27 6,-21 29,-26 35,-7 2,6 10,8 17,4 9,-6 5,-15 -14,-33 -25,-26 -26,-26 -41,-7 -15,18 -15,18 -9,-9 5,-25 3,-28 -15,-22 -16,5 -20,2 -20,-18 0,-16 -7,-26 -20,-30 -18,-5 -20,-14 -20,-86 v -80 l 64,-66 c 40,-41 71,-65 85,-65 12,0 33,-7 46,-16 18,-12 37,-14 67,-10 24,4 78,9 121,12 72,6 80,4 103,-17 20,-19 24,-32 24,-82 0,-77 -24,-74 -28,4 -3,44 -8,57 -28,72 -25,19 -54,17 -54,-2 0,-6 11,-13 25,-17 25,-6 25,-8 25,-106 0,-90 2,-100 19,-105 11,-3 22,-11 25,-19 3,-8 14,-14 25,-14 10,0 21,-7 25,-15 3,-8 16,-15 30,-15 13,0 26,-7 30,-15 4,-11 20,-15 56,-15 28,0 65,-7 82,-16 17,-9 40,-13 52,-11 11,3 39,10 61,16 42,11 75,6 75,-10 0,-5 -21,-9 -46,-9 -32,0 -44,-4 -42,-12 6,-17 79,-23 89,-7 4,7 24,13 45,13 49,1 58,-22 9,-26 -59,-5 -45,-23 22,-26 38,-2 66,-8 73,-17 16,-19 115,-20 127,-3 9,15 37,33 71,48 12,5 22,14 22,20 0,5 9,10 20,10 11,0 39,19 63,43 23,24 50,46 60,50 24,9 21,23 -5,32 -22,7 -22,7 -3,12 10,3 21,0 23,-6 6,-17 42,-13 42,4 0,8 -7,15 -15,15 -8,0 -15,5 -15,10 0,6 7,10 15,10 8,0 15,-4 15,-10 0,-5 7,-10 15,-10 8,0 15,5 15,11 0,14 41,48 60,49 8,0 28,14 44,30 16,17 37,30 47,30 33,0 47,11 41,32 -4,18 -2,19 16,9 26,-14 99,-14 107,-1 4,6 -7,13 -25,16 -38,8 -47,21 -20,29 23,7 60,-2 60,-16 0,-12 137,-12 144,0 8,12 -18,21 -64,21 -21,0 -41,4 -44,9 -10,15 77,19 119,5 55,-19 105,-18 105,1 0,9 -9,15 -25,15 -27,0 -34,15 -10,24 18,6 45,-2 45,-15 0,-5 14,-9 30,-9 20,0 30,5 30,15 0,8 -9,15 -20,15 -23,0 -27,15 -6,23 8,3 20,-1 26,-9 15,-16 46,-19 55,-3 4,6 -1,17 -11,24 -17,13 -17,14 -2,15 9,0 20,-4 23,-10 8,-13 52,-13 60,0 3,6 -1,13 -9,16 -9,3 -16,10 -16,15 0,12 37,11 45,-1 10,-16 65,-12 65,5 0,9 -9,15 -25,15 -28,0 -34,17 -9,27 10,4 22,-1 29,-10 15,-21 65,-23 65,-3 0,8 12,16 27,18 31,4 44,28 14,28 -11,0 -23,4 -26,10 -4,6 5,10 19,10 14,0 26,-4 26,-10 0,-16 40,-12 46,5 4,8 19,15 34,15 30,0 53,21 32,28 -7,2 -12,9 -12,15 0,8 4,7 12,-1 15,-15 55,-16 63,-1 4,6 -1,17 -11,24 -18,13 -18,14 -1,15 9,0 17,-5 17,-11 0,-14 52,-7 58,9 2,7 -5,12 -17,12 -11,0 -23,4 -26,10 -3,6 3,10 14,10 11,0 23,-4 26,-10 8,-13 42,-13 50,1 4,6 -1,17 -11,24 -18,14 -18,14 4,15 12,0 22,-4 22,-9 0,-5 93,-9 208,-9 161,-1 217,-4 251,-16 24,-9 56,-16 72,-16 16,0 32,-7 38,-17 8,-15 23,-18 91,-17 59,1 86,6 99,18 10,9 30,16 44,16 15,0 27,5 27,10 0,6 11,15 25,20 14,5 25,14 25,20 0,5 11,10 24,10 13,0 26,6 29,14 5,11 35,14 149,14 82,0 148,-4 155,-10 7,-6 27,-7 45,-4 18,4 50,10 71,13 21,3 41,11 44,19 3,9 21,14 48,14 24,0 48,6 54,14 8,9 34,14 76,14 63,0 65,1 108,46 38,40 49,46 84,46 27,0 43,-5 47,-15 8,-22 614,-21 623,1 4,11 30,14 117,14 81,1 116,5 130,15 15,11 36,13 90,9 39,-4 75,-10 81,-15 13,-13 262,-11 270,1 4,6 63,10 146,10 86,0 139,-4 139,-10 0,-5 -20,-10 -44,-10 -43,0 -76,-18 -39,-22 35,-2 78,4 83,13 3,5 100,10 215,11 156,2 209,6 213,16 2,8 -7,12 -27,12 -16,0 -33,5 -36,10 -4,6 8,10 29,10 20,0 36,-5 36,-11 0,-14 102,-7 107,8 3,8 -12,13 -42,15 -25,2 -46,8 -48,13 -4,17 63,17 90,0 27,-18 104,-17 179,3 24,7 52,8 70,3 l 29,-8 -25,-6 c -14,-4 -33,-8 -43,-9 -39,-6 -19,-23 31,-26 37,-2 57,1 68,12 19,20 108,22 102,4 -3,-8 -26,-14 -57,-16 -77,-5 -61,-26 23,-30 51,-2 70,1 83,13 13,14 33,16 111,13 65,-2 97,-7 100,-15 7,-22 42,-14 82,17 21,17 41,30 45,30 20,0 83,64 103,104 13,25 27,48 33,51 14,9 11,48 -7,83 -16,34 -16,63 1,63 6,0 11,-17 13,-36 4,-42 25,-43 30,-2 2,14 10,31 18,37 8,7 14,19 14,28 0,8 7,24 17,34 24,27 20,329 -5,364 -9,13 -22,24 -28,24 -7,0 -14,7 -18,15 -3,8 -16,15 -28,15 -13,0 -32,7 -42,15 -11,8 -39,15 -63,15 h -43 v 40 c 0,23 -6,42 -14,47 -8,4 -15,17 -17,28 -6,30 -76,65 -130,65 -29,0 -51,6 -59,15 -7,8 -28,15 -47,15 -19,0 -46,6 -61,14 -33,16 -177,22 -463,18 z m 346,-73 c 28,-6 83,-14 124,-20 41,-5 81,-15 89,-21 8,-7 38,-15 66,-18 50,-5 52,-6 75,-55 47,-100 66,-137 76,-143 6,-4 37,-7 70,-7 53,0 63,-4 90,-31 28,-29 30,-35 30,-111 1,-58 6,-87 18,-106 21,-32 22,-73 3,-84 -8,-4 -16,-21 -18,-36 -1,-15 -7,-28 -13,-28 -17,0 -17,49 0,75 17,26 15,56 -4,56 -6,0 -14,-12 -17,-27 -4,-15 -13,-34 -21,-41 -7,-7 -13,-21 -13,-30 0,-9 -7,-26 -15,-36 -9,-12 -15,-42 -15,-71 0,-29 -7,-67 -17,-86 -22,-45 -99,-118 -132,-125 -14,-3 -38,-10 -52,-16 -59,-21 -237,0 -434,52 -58,15 -98,20 -145,16 -103,-7 -199,-23 -212,-33 -7,-6 -47,-18 -88,-26 -62,-13 -124,-15 -350,-12 -151,3 -322,5 -380,4 -237,-1 -341,0 -448,6 -68,4 -118,3 -125,-3 -7,-5 -33,-13 -59,-16 -26,-4 -50,-11 -53,-17 -10,-15 -89,-11 -123,7 -28,13 -47,14 -140,5 -59,-6 -124,-13 -144,-17 -30,-5 -49,0 -99,25 -34,17 -69,31 -77,31 -8,0 -41,-25 -75,-56 -70,-65 -90,-74 -162,-74 -30,0 -57,-5 -60,-10 -3,-6 -19,-10 -34,-10 -16,0 -40,-9 -53,-20 -24,-18 -38,-19 -235,-15 l -210,4 -76,-49 c -41,-28 -82,-50 -91,-50 -8,0 -17,-4 -21,-9 -3,-6 -25,-13 -50,-17 -38,-5 -51,-2 -92,23 -41,25 -63,31 -143,37 -52,5 -100,12 -107,18 -7,5 -44,7 -90,4 -278,-20 -299,-23 -333,-41 -19,-10 -37,-21 -40,-24 -13,-15 -118,-71 -133,-71 -16,0 -155,-69 -162,-80 -3,-6 -15,-10 -27,-10 -11,0 -32,-6 -46,-14 -15,-7 -63,-30 -107,-50 -44,-21 -88,-42 -97,-47 -10,-5 -26,-9 -35,-9 -10,0 -31,-7 -47,-15 -16,-8 -56,-15 -90,-15 -33,-1 -79,-7 -101,-15 -22,-8 -46,-15 -53,-15 -15,0 -104,-39 -112,-49 -3,-3 -26,-17 -52,-31 -27,-13 -48,-28 -48,-32 0,-5 -7,-8 -15,-8 -8,0 -37,-15 -63,-33 -110,-78 -168,-115 -189,-121 -12,-4 -25,-15 -28,-26 -7,-23 -59,-54 -133,-80 -57,-20 -85,-19 -110,6 -7,8 -26,14 -42,14 -15,0 -41,7 -56,15 -16,8 -48,15 -71,15 -41,0 -150,23 -188,40 -11,5 -38,12 -59,15 -75,13 -81,22 -81,138 0,141 -7,150 -135,166 -257,31 -234,23 -307,101 -23,25 -33,45 -33,68 0,49 5,56 157,226 48,54 51,65 23,91 -15,13 -34,18 -72,16 -29,-1 -57,-6 -62,-11 -6,-6 -16,-10 -22,-10 -7,0 -33,-13 -57,-30 -25,-16 -47,-30 -50,-30 -13,0 -103,-66 -120,-87 -10,-13 -24,-29 -31,-36 -17,-18 -56,-95 -56,-113 0,-8 -20,-28 -44,-46 -24,-17 -53,-46 -63,-66 -26,-49 -138,-94 -157,-63 -11,17 -69,21 -92,6 -40,-26 -90,-19 -151,21 -57,39 -127,123 -139,168 -3,14 -10,29 -15,32 -5,3 -9,16 -9,30 0,13 -3,24 -8,24 -4,0 -20,11 -35,25 -22,21 -27,34 -27,73 0,26 6,59 14,74 8,15 17,42 21,60 4,18 12,39 17,45 6,7 19,93 29,190 17,159 35,235 58,253 4,3 28,37 53,75 61,92 133,165 161,165 15,0 34,-18 61,-56 22,-30 55,-66 74,-81 30,-22 39,-25 63,-16 18,7 58,8 119,1 99,-9 130,-23 205,-91 22,-20 45,-37 52,-37 6,0 13,-4 15,-8 5,-12 139,-98 183,-117 38,-17 79,-19 242,-13 49,2 111,-66 128,-140 3,-17 11,-32 16,-32 5,0 9,-14 9,-30 0,-47 33,-97 120,-182 l 82,-78 h 56 c 34,-1 65,-7 76,-15 11,-8 32,-15 46,-15 14,0 31,-5 37,-11 17,-17 193,7 215,29 7,7 19,12 28,12 15,0 54,28 109,79 73,67 225,161 260,161 10,0 26,7 37,15 10,8 35,15 54,15 20,0 46,8 60,17 13,9 42,20 64,24 23,5 67,13 100,19 32,6 66,15 75,19 9,5 40,12 68,16 29,4 55,11 59,16 3,5 13,9 22,9 9,0 31,7 47,16 22,12 61,16 148,18 78,1 120,5 125,13 4,6 20,15 35,18 15,4 27,11 27,16 0,4 16,11 35,15 19,3 38,10 41,15 8,14 47,11 87,-6 42,-17 206,-20 277,-4 25,6 65,14 89,18 23,5 46,13 50,19 12,19 60,25 84,9 12,-8 61,-17 112,-21 162,-13 149,-16 213,51 59,61 85,73 158,73 18,0 35,4 39,9 3,5 30,15 59,21 45,9 61,8 92,-5 59,-25 105,-10 214,70 30,22 84,55 120,72 64,32 68,32 221,35 97,2 161,7 170,14 8,7 58,15 113,19 61,4 114,14 141,26 46,21 69,17 99,-14 17,-17 28,-19 105,-13 47,3 104,8 126,12 33,4 52,-1 106,-29 66,-34 66,-34 90,-15 39,31 101,56 154,62 27,3 54,11 59,16 6,6 19,10 31,10 11,0 33,7 49,15 15,8 36,15 45,15 9,0 29,7 45,15 15,8 46,15 67,15 21,0 58,6 81,14 24,8 68,17 98,20 261,26 321,34 333,45 8,6 39,14 68,17 60,7 116,23 169,50 27,14 57,18 130,17 52,-1 99,2 105,6 5,5 19,11 30,14 36,9 249,6 300,-4 z m 505,-214 c 0,-15 -43,-12 -48,3 -3,10 4,13 22,10 15,-2 26,-7 26,-13 z M 528,1833 c -4,-22 -22,-20 -26,1 -2,10 3,16 13,16 10,0 15,-7 13,-17 z M 223,1604 c 9,-9 -4,-35 -14,-28 -5,3 -9,12 -9,20 0,14 12,19 23,8 z m 837,-39 c 0,-9 -6,-12 -15,-9 -8,4 -15,10 -15,15 0,5 7,9 15,9 8,0 15,-7 15,-15 z m 38,-26 c -2,-6 -8,-10 -13,-10 -5,0 -11,4 -13,10 -2,6 4,11 13,11 9,0 15,-5 13,-11 z m 3087,-29 c 3,-5 -3,-10 -14,-10 -12,0 -21,5 -21,10 0,6 6,10 14,10 8,0 18,-4 21,-10 z m 75,1 c 0,-12 -28,-22 -34,-12 -3,5 -3,11 1,15 9,9 33,7 33,-3 z m -2890,-92 c 0,-5 -11,-9 -25,-9 -28,0 -34,16 -7,23 20,4 32,-1 32,-14 z m 300,-177 c 0,-13 -12,-22 -22,-16 -10,6 -1,24 13,24 5,0 9,-4 9,-8 z m 30,-77 c 0,-14 7,-28 15,-31 8,-4 15,-17 15,-30 0,-12 7,-27 16,-32 9,-5 14,-15 10,-21 -9,-14 -55,26 -56,49 0,8 -7,24 -15,34 -19,26 -19,56 0,56 9,0 15,-9 15,-25 z m 900,9 c 0,-17 -22,-14 -28,4 -2,7 3,12 12,12 9,0 16,-7 16,-16 z m -115,-55 c 4,-6 -2,-13 -14,-16 -12,-3 -21,-12 -21,-19 0,-8 -7,-14 -15,-14 -8,0 -15,-7 -15,-15 0,-8 -7,-15 -15,-15 -8,0 -15,7 -15,15 0,8 7,15 15,15 8,0 15,7 15,15 0,8 7,15 15,15 8,0 15,7 15,15 0,17 26,20 35,4 z m 3955,-28 c 23,-7 22,-8 -11,-12 -43,-5 -62,-1 -53,12 6,10 28,10 64,0 z m -790,-11 c 0,-5 -6,-10 -14,-10 -8,0 -18,5 -21,10 -3,6 3,10 14,10 12,0 21,-4 21,-10 z m 400,-31 c 0,-11 -12,-11 -76,-2 -38,5 -43,8 -25,13 32,7 101,0 101,-11 z m 278,4 c 2,-9 -8,-13 -32,-13 -34,0 -44,8 -29,24 11,11 56,2 61,-11 z m -4508,-28 c 0,-8 7,-15 15,-15 9,0 15,-9 15,-25 0,-14 -5,-25 -10,-25 -6,0 -16,11 -22,25 -6,14 -15,25 -20,25 -4,0 -8,7 -8,15 0,8 7,15 15,15 8,0 15,-7 15,-15 z m 530,-30 c 0,-8 -7,-15 -15,-15 -8,0 -15,-4 -15,-9 0,-14 -32,-23 -43,-12 -7,7 -4,13 9,17 10,4 23,13 27,21 11,18 37,17 37,-2 z M 3530,665 c 0,-16 -35,-21 -44,-6 -8,12 4,21 26,21 10,0 18,-7 18,-15 z M 1151,597 c -13,-13 -26,-3 -16,12 3,6 11,8 17,5 6,-4 6,-10 -1,-17 z m -351,-7 c 0,-11 -4,-20 -10,-20 -5,0 -10,2 -10,4 0,2 -3,11 -6,20 -4,11 -1,16 10,16 9,0 16,-8 16,-20 z M 548,513 c 2,-8 -6,-13 -22,-13 -17,0 -26,5 -26,16 0,19 41,16 48,-3 z M 2480,209 c 0,-5 -4,-9 -9,-9 -6,0 -25,-13 -43,-30 -18,-16 -38,-30 -45,-30 -7,0 -13,-7 -13,-15 0,-8 -9,-15 -20,-15 -25,0 -26,18 -2,27 22,9 36,23 45,46 4,10 17,17 31,17 13,0 27,7 30,16 6,15 26,11 26,-7 z M 2320,90 c 0,-5 -6,-10 -14,-10 -8,0 -18,5 -21,10 -3,6 3,10 14,10 12,0 21,-4 21,-10 z m -50,-25 c 0,-10 -10,-15 -34,-15 -61,0 -55,27 7,29 18,1 27,-4 27,-14 z" />
    <path
       id="path282"
       d="m 6572,1028 c 6,-17 49,-21 115,-13 78,10 54,25 -38,25 -60,0 -80,-3 -77,-12 z" />
    <path
       id="path284"
       d="m 7020,1031 c 0,-5 9,-13 21,-16 28,-9 111,4 104,16 -8,12 -125,12 -125,0 z" />
    <path
       id="path286"
       d="m 8293,1028 c 2,-9 33,-13 107,-13 74,0 105,4 108,13 3,9 -23,12 -108,12 -85,0 -111,-3 -107,-12 z" />
    <path
       id="path288"
       d="m 1102,911 c 2,-7 7,-12 11,-12 12,1 9,15 -3,20 -7,2 -11,-2 -8,-8 z" />
    <path
       id="path290"
       d="m 1040,875 c 0,-8 -6,-15 -14,-15 -8,0 -28,-14 -45,-31 -28,-28 -41,-59 -24,-59 3,0 25,19 48,43 23,24 49,46 59,50 9,4 14,11 11,17 -10,15 -35,12 -35,-5 z" />
  </g>
</svg>
